<?xml version="1.0" encoding="utf-8"?>
<!-- Generator: Adobe Illustrator 24.0.3, SVG Export Plug-In . SVG Version: 6.00 Build 0)  -->
<svg version="1.1" id="Layer_1" xmlns="http://www.w3.org/2000/svg" xmlns:xlink="http://www.w3.org/1999/xlink" x="0px" y="0px"
	 viewBox="0 0 90 110" style="enable-background:new 0 0 90 112.5;" xml:space="preserve">
<style type="text/css">
	.st2{fill:#353535;stroke:none;stroke-miterlimit:10;}
	.day-mon{fill:#ffffff;stroke:#d2d2d2;stroke-width:1;}.day-tues{fill:#ffffff;stroke:#d2d2d2;stroke-width:1;}.day-wed{fill:#ffffff;stroke:#d2d2d2;stroke-width:1;}.day-thurs{fill:#febe10;stroke:#febe10;stroke-width:4;}.day-fri{fill:#ffffff;stroke:#d2d2d2;stroke-width:1;}.day-sat{fill:#ffffff;stroke:#d2d2d2;stroke-width:1;}.day-sun{fill:#ffffff;stroke:#d2d2d2;stroke-width:1;}
</style>
<path class = "st2" d="M23.8,22L23.8,22c-2.1,0-3.8-1.7-3.8-3.8V9.7c0-2.1,1.7-3.8,3.8-3.8l0,0c2.1,0,3.8,1.7,3.8,3.8v8.5
	C27.6,20.3,25.9,22,23.8,22z"/>
<path class = "st2" d="M65.8,22L65.8,22c-2.1,0-3.8-1.7-3.8-3.8V9.7c0-2.1,1.7-3.8,3.8-3.8l0,0c2.1,0,3.8,1.7,3.8,3.8v8.5
	C69.7,20.3,67.9,22,65.8,22z"/>
<path class = "st2" d="M79.3,15.9c2.7,0,4.9,2.2,4.9,4.9v65.9c0,2.7-2.2,4.9-4.9,4.9H10.4c-2.7,0-4.9-2.2-4.9-4.9V20.8c0-2.7,2.2-4.9,4.9-4.9h5.9
	v2.6c0,4.1,3.3,7.4,7.4,7.4s7.4-3.3,7.4-7.4v-2.6h27.3v2.6c0,4.1,3.3,7.4,7.4,7.4s7.4-3.3,7.4-7.4v-2.6H79.3 M79.3,13.9h-7.9v4.6
	c0,3-2.4,5.4-5.4,5.4s-5.4-2.4-5.4-5.4v-4.6H29.2v4.6c0,3-2.4,5.4-5.4,5.4l0,0c-3,0-5.4-2.4-5.4-5.4v-4.6h-7.9
	c-3.8,0-6.9,3.1-6.9,6.9v65.9c0,3.8,3.1,6.9,6.9,6.9h68.9c3.8,0,6.9-3.1,6.9-6.9V20.8C86.3,17,83.1,13.9,79.3,13.9L79.3,13.9z"/>
<rect  class = "st2" x="8.5" y="28" width="72.5" height="2"/>




<rect class = "day-mon" x = "8.5" y = "34.9" width = "8.2" height = "8.2" rx="1" ></rect>
<rect class = "day-tues" x = "19.3" y = "34.9" width = "8.2" height = "8.2" rx="1" ></rect>
<rect class = "day-wed" id="d1" x = "30.1" y = "34.9" width = "8.2" height = "8.2" rx="1" ></rect>>
<rect class = "day-thurs" id="d2" x = "40.9" y = "34.9" width = "8.2" height = "8.2" rx="100" ></rect>>
<rect class = "day-fri" id="d3" x = "51.7" y = "34.9" width = "8.2" height = "8.2" rx="1" ></rect>>
<rect class = "day-sat" id="d4" x = "62.5" y = "34.9" width = "8.2" height = "8.2" rx="1" ></rect>>
<rect class = "day-sun" id="d5" x = "73.3" y = "34.9" width = "8.2" height = "8.2" rx="1" ></rect>>


<rect class = "day-mon" id="d6" x = "8.5" y = "46" width = "8.2" height = "8.2" rx="1" ></rect>>
<rect class = "day-tues" id="d7" x = "19.3" y = "46" width = "8.2" height = "8.2" rx="1" ></rect>>
<rect class = "day-wed" id="d8" x = "30.1" y = "46" width = "8.2" height = "8.2" rx="1" ></rect>>
<rect class = "day-thurs" id="d9" x = "40.9" y = "46" width = "8.2" height = "8.2" rx="100" ></rect>>
<rect class = "day-fri" id="d10" x = "51.7" y = "46" width = "8.2" height = "8.2" rx="1" ></rect>>
<rect class = "day-sat" id="d11" x = "62.5" y = "46" width = "8.2" height = "8.2" rx="1" ></rect>>
<rect class = "day-sun" id="d12" x = "73.3" y = "46" width = "8.2" height = "8.2" rx="1" ></rect>>


<rect class = "day-mon" id="d13" x = "8.5" y = "57.1" width = "8.2" height = "8.2" rx="1" ></rect>>
<rect class = "day-tues" id="d14" x = "19.3" y = "57.1" width = "8.2" height = "8.2" rx="1" ></rect>>
<rect class = "day-wed" id="d15" x = "30.1" y = "57.1" width = "8.2" height = "8.2" rx="1" ></rect>>
<rect class = "day-thurs" id="d16" x = "40.9" y = "57.1" width = "8.2" height = "8.2" rx="100" ></rect>>
<rect class = "day-fri" id="d17" x = "51.7" y = "57.1" width = "8.2" height = "8.2" rx="1" ></rect>>
<rect class = "day-sat" id="d18" x = "62.5" y = "57.1" width = "8.2" height = "8.2" rx="1" ></rect>>
<rect class = "day-sun" id="d19" x = "73.3" y = "57.1" width = "8.2" height = "8.2" rx="1" ></rect>>


<rect class = "day-mon" id="d20" x = "8.5" y = "68.2" width = "8.2" height = "8.2" rx="1" ></rect>>
<rect class = "day-tues" id="d21" x = "19.3" y = "68.2" width = "8.2" height = "8.2" rx="1" ></rect>>
<rect class = "day-wed" id="d22" x = "30.1" y = "68.2" width = "8.2" height = "8.2" rx="1" ></rect>>
<rect class = "day-thurs" id="d23" x = "40.9" y = "68.2" width = "8.2" height = "8.2" rx="100" ></rect>>
<rect class = "day-fri" id="d24" x = "51.7" y = "68.2" width = "8.2" height = "8.2" rx="1" ></rect>>
<rect class = "day-sat" id="d25" x = "62.5" y = "68.2" width = "8.2" height = "8.2" rx="1" ></rect>>
<rect class = "day-sun" id="d26" x = "73.3" y = "68.2" width = "8.2" height = "8.2" rx="1" ></rect>>


<rect class = "day-mon" id="d27" x = "8.5" y = "79.3" width = "8.2" height = "8.2" rx="1" ></rect>>
<rect class = "day-tues" id="d28" x = "19.3" y = "79.3" width = "8.2" height = "8.2" rx="1" ></rect>>
<rect class = "day-wed" id="d29" x = "30.1" y = "79.3" width = "8.2" height = "8.2" rx="1" ></rect>>
<rect class = "day-thurs" id="d30" x = "40.9" y = "79.3" width = "8.2" height = "8.2" rx="100" ></rect>>
<rect class = "day-fri" id="d31" x = "51.7" y = "79.3" width = "8.2" height = "8.2" rx="1" ></rect>>
<rect class = "day-sat" x = "62.5" y = "79.3" width = "8.2" height = "8.2" rx="1" ></rect>>
<rect class = "day-sun" x = "73.3" y = "79.3" width = "8.2" height = "8.2" rx="1" ></rect>>





</svg>
